<?xml version="1.0" standalone="no"?>
<!DOCTYPE svg PUBLIC "-//W3C//DTD SVG 1.1//EN" "http://www.w3.org/Graphics/SVG/1.1/DTD/svg11.dtd" >
<svg xmlns="http://www.w3.org/2000/svg" xmlns:xlink="http://www.w3.org/1999/xlink" version="1.1">
<metadata>
Created by FontForge 20150913 at Sat Apr 23 23:39:02 2016
 By Jimmy Wärting
a_AvanteBasicNarrow *Arsenal Company (c)1997* FAX: (095)924-3775; e-Mail: arsenal@itco.msk.su; Phone: (095)924-5811 (Design and Featuring W.Chufarofsky &#38; M.Slutsker)
</metadata>
<defs>
<font id="AAvanteBsNrLight" horiz-adv-x="839" >
  <font-face 
    font-family="a_AvanteBsNr"
    font-weight="200"
    font-stretch="normal"
    units-per-em="1000"
    panose-1="2 11 2 2 2 2 2 2 2 4"
    ascent="800"
    descent="-200"
    x-height="513"
    cap-height="720"
    bbox="-44 -238 1003 907"
    underline-thickness="80"
    underline-position="-220"
    unicode-range="U+0020-2122"
  />
<missing-glyph horiz-adv-x="500" 
d="M63 0v907h375v-907h-375zM125 63h250v782h-250v-782z" />
    <glyph glyph-name=".notdef" horiz-adv-x="500" 
d="M63 0v907h375v-907h-375zM125 63h250v782h-250v-782z" />
    <glyph glyph-name=".null" horiz-adv-x="0" 
 />
    <glyph glyph-name="nonmarkingreturn" horiz-adv-x="345" 
 />
    <glyph glyph-name="space" unicode=" " horiz-adv-x="345" 
 />
    <glyph glyph-name="exclam" unicode="!" horiz-adv-x="239" 
d="M154 190h-69v530h69v-530zM154 0h-69v106h69v-106z" />
    <glyph glyph-name="quotedbl" unicode="&#x22;" horiz-adv-x="235" 
d="M198 443h-51v272h51v-272zM89 443h-51v272h51v-272z" />
    <glyph glyph-name="numbersign" unicode="#" horiz-adv-x="640" 
d="M591 481l-14 -48h-127l-34 -150h136l-12 -48h-137l-55 -235h-56l55 235h-109l-56 -235h-57l55 234h-131l13 48h131l35 151h-141l13 47h141l56 237h56l-55 -237h107l56 237h58l-56 -236h128zM393 433h-109l-34 -151h109z" />
    <glyph glyph-name="dollar" unicode="$" horiz-adv-x="473" 
d="M405 211q0 -75 -32 -132q-38 -67 -106 -75v-121h-63v118q-71 10 -110 71q-34 53 -34 129h62q0 -138 109 -138q54 0 82 43q24 36 24 93q0 78 -50 114q-1 0 -106 47q-67 31 -92 87q-14 31 -14 75q0 163 128 187v101h63v-101q117 -19 126 -167h-65q0 43 -24 74
q-26 35 -67 35q-48 0 -73 -39q-22 -34 -22 -84q0 -59 41 -89q12 -9 93 -43q130 -55 130 -185z" />
    <glyph glyph-name="percent" unicode="%" horiz-adv-x="729" 
d="M326 558q0 -67 -39 -118q-42 -55 -107 -55q-64 0 -106 56q-38 51 -38 117q0 67 38 117q41 55 106 55q66 0 108 -54q38 -50 38 -118zM550 730l-319 -744h-53l321 744h51zM693 158q0 -67 -37 -117q-42 -55 -106 -55q-65 0 -107 54q-40 50 -40 117t39 118q42 55 107 55
t106 -55q38 -50 38 -117zM267 558q0 43 -22 77q-25 40 -66 40t-66 -40q-21 -34 -21 -77t21 -78q25 -40 66 -40q40 0 66 40q22 35 22 78zM636 157q0 43 -22 78q-26 40 -66 40q-42 0 -67 -39q-21 -34 -21 -78q0 -43 22 -78q26 -40 66 -40t65 40q23 35 23 77z" />
    <glyph glyph-name="ampersand" unicode="&#x26;" horiz-adv-x="578" 
d="M565 57l-38 -55l-122 134q-62 -150 -178 -150q-77 0 -128 68q-46 62 -46 142q0 129 122 207q-39 41 -56 72q-21 39 -21 87q0 66 38 114q42 51 106 51q59 0 99 -53q36 -49 36 -110q0 -101 -112 -168l115 -133l62 204l68 -11l-79 -247zM309 565q0 35 -17 65q-20 35 -53 35
q-36 0 -56 -34q-17 -29 -17 -67q0 -66 64 -128q79 45 79 129zM356 191l-146 168q-87 -59 -87 -161q0 -54 25 -95q29 -49 79 -49q73 0 129 137z" />
    <glyph glyph-name="quotesingle" unicode="'" horiz-adv-x="123" 
d="M87 443h-51v272h51v-272z" />
    <glyph glyph-name="parenleft" unicode="(" horiz-adv-x="225" 
d="M192 -219q-81 46 -114 130q-27 68 -27 175v349q0 220 141 302v-89q-72 -49 -72 -226v-326q0 -79 10 -123q17 -70 62 -104v-88z" />
    <glyph glyph-name="parenright" unicode=")" horiz-adv-x="225" 
d="M175 87q0 -108 -27 -175q-33 -83 -115 -131v88q47 36 63 105q10 44 10 126v328q0 170 -73 220v89q142 -84 142 -301v-349z" />
    <glyph glyph-name="asterisk" unicode="*" horiz-adv-x="502" 
d="M445 548l-146 -41l99 -122l-57 -41l-90 128l-89 -128l-58 40l97 123l-144 40l22 67l139 -48v149h64v-149l139 48z" />
    <glyph glyph-name="plus" unicode="+" 
d="M714 274h-264v-271h-61v271h-265v58h265v271h61v-271h264v-58z" />
    <glyph glyph-name="comma" unicode="," horiz-adv-x="230" 
d="M160 131l-60 -211h-58l61 211h57z" />
    <glyph glyph-name="hyphen" unicode="-" horiz-adv-x="266" 
d="M228 233h-192v76h192v-76z" />
    <glyph glyph-name="hyphen" unicode="&#x2010;" horiz-adv-x="266" 
d="M228 233h-192v76h192v-76z" />
    <glyph glyph-name="period" unicode="." horiz-adv-x="229" 
d="M143 0h-58v131h58v-131z" />
    <glyph glyph-name="slash" unicode="/" horiz-adv-x="232" 
d="M229 728l-195 -823h-53l196 823h52z" />
    <glyph glyph-name="zero" unicode="0" horiz-adv-x="473" 
d="M437 246q0 -111 -43 -179q-52 -81 -157 -81t-157 83q-43 69 -43 180v217q0 109 44 180q53 84 156 84q104 0 156 -82q44 -68 44 -178v-224zM365 233v248q0 76 -26 123q-32 60 -102 60q-69 0 -103 -60q-26 -48 -26 -123v-254q0 -73 28 -119q33 -57 101 -57q69 0 102 60
q26 47 26 122z" />
    <glyph glyph-name="one" unicode="1" horiz-adv-x="473" 
d="M384 0h-286v65h111v592h-86v59h157v-651h104v-65z" />
    <glyph glyph-name="two" unicode="2" horiz-adv-x="475" 
d="M425 0h-373v70l210 249q92 109 92 187q0 66 -25 108q-31 52 -92 52q-63 0 -93 -61q-23 -46 -23 -116h-69q0 99 45 166q52 78 147 78q92 0 140 -68q41 -60 41 -156q0 -100 -89 -203l-205 -238h294v-68z" />
    <glyph glyph-name="three" unicode="3" horiz-adv-x="474" 
d="M429 219q0 -90 -52 -158q-56 -75 -143 -75q-92 0 -144 71q-46 63 -46 159h72q0 -166 115 -166q61 0 96 52q30 46 30 110q0 196 -133 196q-21 0 -56 -14l-24 43l170 217h-237v66h317v-63l-152 -190q187 -13 187 -248z" />
    <glyph glyph-name="four" unicode="4" horiz-adv-x="473" 
d="M445 134h-67v-134h-68v134h-269v67l263 515h73v-519h68v-63zM309 197v407l-203 -407h203z" />
    <glyph glyph-name="five" unicode="5" horiz-adv-x="474" 
d="M441 241q0 -101 -53 -174q-59 -81 -157 -81q-88 0 -144 68q-53 64 -53 154h69q2 -58 37 -104q38 -51 94 -51q66 0 104 64q31 54 31 125q0 74 -29 121q-36 57 -105 57q-75 0 -114 -73l-58 19l52 354h277v-67h-221l-32 -205q45 39 105 39q94 0 149 -78q48 -70 48 -168z" />
    <glyph glyph-name="six" unicode="6" horiz-adv-x="474" 
d="M439 234q0 -102 -49 -171q-55 -77 -154 -77q-95 0 -151 73q-51 66 -51 164q0 86 86 249l129 244h78l-139 -261q35 14 66 14q86 0 139 -77q46 -68 46 -158zM367 231q0 66 -31 117q-36 60 -98 60q-61 0 -100 -58q-35 -52 -35 -116q0 -94 40 -138t94 -44q130 0 130 179z" />
    <glyph glyph-name="seven" unicode="7" horiz-adv-x="474" 
d="M411 653l-225 -653h-72l228 653h-270v67h339v-67z" />
    <glyph glyph-name="eight" unicode="8" horiz-adv-x="474" 
d="M423 212q0 -122 -52.5 -174.5t-137.5 -52.5q-78 0 -130.5 52.5t-52.5 170.5q0 131 90 185q0 8 -2 15q-61 55 -61 136q0 91 47 138.5t111 47.5q77 0 121 -54q41 -50 41 -129q0 -85 -65 -142v-6q1 -3 1 -5q90 -54 90 -182zM329 543q0 123 -91 123q-46 0 -71 -36
q-20 -31 -20 -80q0 -46 19 -80q24 -40 67 -40q47 0 72 35q23 31 23 79zM354 209q0 61 -26 104q-31 51 -89 51h-11q-55 0 -85 -53q-24 -43 -24 -102q0 -158 114 -158q121 0 121 158z" />
    <glyph glyph-name="nine" unicode="9" horiz-adv-x="474" 
d="M437 486q0 -61 -26 -126q-12 -30 -57 -115l-130 -245h-76l137 258q-5 -1 -32 -9q-20 -5 -33 -5q-86 0 -139 78q-47 69 -47 159q0 105 47 172q54 77 156 77q101 0 154 -74q46 -65 46 -170zM367 481q0 73 -28 122q-35 60 -103 60q-69 0 -103 -57q-28 -47 -28 -121
q0 -67 31 -118q36 -59 99 -59q60 0 99 58q33 52 33 115z" />
    <glyph glyph-name="colon" unicode=":" horiz-adv-x="232" 
d="M146 382h-59v131h59v-131zM146 0h-59v131h59v-131z" />
    <glyph glyph-name="semicolon" unicode=";" horiz-adv-x="233" 
d="M146 381h-58v132h58v-132zM161 131l-61 -210h-59l59 210h61z" />
    <glyph glyph-name="less" unicode="&#x3c;" horiz-adv-x="840" 
d="M709 38l-579 237v50l579 239v-64l-493 -200l493 -199v-63z" />
    <glyph glyph-name="equal" unicode="=" 
d="M714 366h-589v58h589v-58zM714 176h-589v57h589v-57z" />
    <glyph glyph-name="greater" unicode="&#x3e;" horiz-adv-x="840" 
d="M709 275l-579 -237v62l494 200l-494 200v64l579 -238v-51z" />
    <glyph glyph-name="question" unicode="?" horiz-adv-x="394" 
d="M361 531q0 -66 -21 -103q-17 -29 -54 -75q-33 -40 -45 -65q-19 -40 -19 -93h-69q0 84 58 171q27 37 55 74q23 37 23 91q0 55 -23 89q-27 40 -80 40t-81 -49q-22 -40 -22 -98h-68q0 84 44 147q49 70 130 70q82 0 129 -60q43 -55 43 -139zM220 0h-67v110h67v-110z" />
    <glyph glyph-name="at" unicode="@" horiz-adv-x="1008" 
d="M953 384q0 -127 -72 -222q-78 -103 -202 -103q-77 0 -96 79q-55 -78 -147 -78q-154 0 -154 162q0 106 61 185q67 85 170 85q89 0 122 -80l24 65h60l-70 -283q-6 -24 -6 -37q0 -47 51 -47q88 0 146 94q51 82 51 176q0 136 -107 216q-97 72 -238 72q-180 0 -303 -117
q-126 -119 -126 -297q0 -162 114 -259q108 -90 273 -90q172 0 309 94l23 -32q-146 -108 -324 -108q-193 0 -320 102q-137 111 -137 299q0 199 149 331q142 127 344 127q160 0 276 -85q129 -94 129 -249zM621 351q-16 96 -102 96q-81 0 -129 -76q-41 -66 -41 -152
q0 -113 99 -113q52 0 93 38q37 35 50 88z" />
    <glyph glyph-name="A" unicode="A" horiz-adv-x="498" 
d="M509 0h-74l-71 228h-235l-72 -228h-73l229 720h68zM343 295l-96 314h-1l-97 -314h194z" />
    <glyph glyph-name="B" unicode="B" horiz-adv-x="433" 
d="M404 213q0 -213 -214 -213h-134v720h119q195 0 195 -189q0 -46 -20 -86q-23 -44 -62 -61q116 -42 116 -171zM299 533q0 122 -124 122h-50v-251h57q117 0 117 129zM333 201q0 73 -29 107q-31 38 -102 38h-77v-281h70q138 0 138 136z" />
    <glyph glyph-name="C" unicode="C" horiz-adv-x="620" 
d="M590 167q-34 -84 -103 -132.5t-158 -48.5q-140 0 -226 123q-77 109 -77 255q0 105 47 196q50 96 138 144q55 30 117 30q91 0 161 -51q67 -50 101 -137h-82q-72 116 -180 116q-46 0 -88 -24q-68 -39 -106 -118q-35 -73 -35 -156q0 -111 58 -203q66 -105 170 -105
q111 0 178 111h85z" />
    <glyph glyph-name="D" unicode="D" horiz-adv-x="566" 
d="M540 360q0 -160 -76 -256q-82 -104 -239 -104h-171v720h182q148 0 230 -109q74 -98 74 -251zM467 360q0 127 -56 205q-64 89 -186 89h-100v-589h108q121 0 182 91q52 77 52 204z" />
    <glyph glyph-name="E" unicode="E" horiz-adv-x="410" 
d="M363 0h-309v720h309v-64h-238v-257h222v-64h-222v-269h238v-66z" />
    <glyph glyph-name="F" unicode="F" horiz-adv-x="385" 
d="M346 656h-221v-259h203v-63h-203v-334h-70v720h291v-64z" />
    <glyph glyph-name="G" unicode="G" horiz-adv-x="657" 
d="M632 346q0 -164 -68 -256q-77 -104 -236 -104q-142 0 -227 121q-75 108 -75 256q0 144 80 252q89 119 228 119q186 0 259 -183h-86q-64 114 -178 114q-77 0 -134 -52q-52 -47 -78 -124q-19 -57 -19 -125q0 -117 56 -206q64 -103 175 -103q109 0 162 60q48 53 61 165h-267
v66h347z" />
    <glyph glyph-name="H" unicode="H" horiz-adv-x="517" 
d="M463 0h-71v334h-267v-334h-71v720h71v-319h267v319h71v-720z" />
    <glyph glyph-name="I" unicode="I" horiz-adv-x="183" 
d="M127 0h-71v720h71v-720z" />
    <glyph glyph-name="J" unicode="J" horiz-adv-x="344" 
d="M286 162q0 -76 -35 -124q-39 -53 -113 -53q-69 0 -106 56q-32 47 -32 120h67q0 -62 22.5 -86.5t49.5 -24.5q77 0 77 118v552h70v-558z" />
    <glyph glyph-name="K" unicode="K" horiz-adv-x="462" 
d="M459 0h-85l-247 365l245 355h83l-250 -354zM126 0h-71v720h71v-720z" />
    <glyph glyph-name="L" unicode="L" horiz-adv-x="349" 
d="M329 0h-273v720h70v-653h203v-67z" />
    <glyph glyph-name="M" unicode="M" horiz-adv-x="700" 
d="M646 0h-69v571q0 12 2 37t2 37h-1l-203 -645h-54l-203 645h-1q0 -12 2 -37t2 -37v-571h-69v720h108l188 -602l188 602h108v-720z" />
    <glyph glyph-name="N" unicode="N" horiz-adv-x="565" 
d="M511 0h-80l-310 607q0 -12 1.5 -35.5t1.5 -35.5v-536h-70v720h82l308 -599q0 13 -1 38.5t-1 38.5v522h69v-720z" />
    <glyph glyph-name="O" unicode="O" horiz-adv-x="662" 
d="M637 365q0 -117 -41 -206q-48 -104 -144 -148q-56 -26 -122 -26q-65 0 -121 26q-95 45 -143 148q-41 89 -41 205q0 88 25 158q35 98 106 153q74 59 175 59t176 -58q72 -55 106 -153q24 -68 24 -158zM563 366q0 71 -19 127q-26 77 -79 122q-58 50 -135 50q-45 0 -88 -20
q-73 -34 -111 -119q-33 -72 -33 -162q0 -93 31 -165q37 -85 111 -122q44 -22 92 -22q116 0 178 102q53 86 53 209z" />
    <glyph glyph-name="P" unicode="P" horiz-adv-x="432" 
d="M411 507q0 -150 -123 -190q-33 -11 -80 -12q11 0 -82 0v-305h-70v720h153q97 0 151 -58q51 -57 51 -155zM338 507q0 84 -39.5 116.5t-97.5 32.5h-75v-287h75q57 0 97 30t40 108z" />
    <glyph glyph-name="Q" unicode="Q" horiz-adv-x="661" 
d="M643 -10q-108 11 -176 28q-55 -32 -138 -32q-102 0 -178 63q-70 58 -103 159q-23 71 -23 156q0 83 24 151q34 98 105 156q76 63 175 63q142 0 227 -114q77 -103 77 -250q0 -204 -106 -295q48 -12 116 -12v-73zM561 366q0 70 -18 124q-26 77 -78 123q-59 52 -135 52
q-45 0 -88 -21q-73 -36 -111 -118q-34 -73 -34 -162q0 -124 54 -209q64 -100 181 -100t178 102q51 84 51 209z" />
    <glyph glyph-name="R" unicode="R" horiz-adv-x="450" 
d="M422 503q0 -89 -49 -144q-52 -56 -140 -56l184 -303h-82l-206 350q97 0 120 5q65 13 90 68q13 29 13 79q0 80 -37 116.5t-117 36.5h-72v-655h-71v720h157q210 0 210 -217z" />
    <glyph glyph-name="S" unicode="S" horiz-adv-x="397" 
d="M370 210q0 -91 -42 -153q-48 -72 -135 -72q-81 0 -128 67q-41 60 -41 144h67q0 -52 24 -94q29 -51 77 -51q53 0 83 52q24 42 24 100q0 79 -67 125l-124 72q-67 50 -67 138q0 86 37 138q42 59 124 59q73 0 113 -55q35 -47 39 -125h-66q-3 44 -23 76q-24 38 -64 38
q-45 0 -70 -40q-21 -35 -21 -82q0 -26 11 -48q25 -50 98 -86q77 -38 110 -77q41 -49 41 -126z" />
    <glyph glyph-name="T" unicode="T" horiz-adv-x="326" 
d="M318 655h-120v-655h-71v654h-119v66h310v-65z" />
    <glyph glyph-name="U" unicode="U" horiz-adv-x="483" 
d="M431 232q0 -107 -39 -170q-47 -77 -148 -77q-193 0 -193 246v489h71v-485q0 -81 26 -132.5t94 -51.5q118 0 118 183v486h71v-488z" />
    <glyph glyph-name="V" unicode="V" horiz-adv-x="485" 
d="M492 720l-217 -720h-65l-218 720h74q176 -612 176 -613l1 3l175 610h74z" />
    <glyph glyph-name="W" unicode="W" horiz-adv-x="726" 
d="M724 720l-179 -720h-59l-1 -3l-122 575l-123 -572h-59l-2 -4l-177 724h70l136 -594l130 594h50l130 -594l136 594h70z" />
    <glyph glyph-name="X" unicode="X" horiz-adv-x="484" 
d="M479 0h-82l-155 298l-157 -298h-81l199 363l-194 357h83l150 -293l150 293h83l-195 -356z" />
    <glyph glyph-name="Y" unicode="Y" horiz-adv-x="426" 
d="M430 720l-182 -433v-287h-71v287l-182 433h79l138 -350l140 350h78z" />
    <glyph glyph-name="Z" unicode="Z" horiz-adv-x="390" 
d="M373 0h-357v75l276 575h-262v70h337v-69l-279 -581h285v-70z" />
    <glyph glyph-name="bracketleft" unicode="[" horiz-adv-x="225" 
d="M197 -207h-144v930h144v-55h-78v-820h78v-55z" />
    <glyph glyph-name="backslash" unicode="\" horiz-adv-x="232" 
d="M251 -95h-53l-196 823h52z" />
    <glyph glyph-name="bracketright" unicode="]" horiz-adv-x="225" 
d="M173 -207h-144v55h77v820h-77v55h144v-930z" />
    <glyph glyph-name="asciicircum" unicode="^" horiz-adv-x="413" 
d="M368 496h-48l-114 172l-113 -173h-49l135 220h55z" />
    <glyph glyph-name="underscore" unicode="_" horiz-adv-x="420" 
d="M426 -230h-432v45h432v-45z" />
    <glyph glyph-name="grave" unicode="`" horiz-adv-x="406" 
d="M252 604h-40l-99 154h64z" />
    <glyph glyph-name="a" unicode="a" horiz-adv-x="508" 
d="M463 0h-61v75q-62 -87 -158 -87q-102 0 -165 86q-56 77 -56 183q0 105 57 183q63 86 164 86q97 0 156 -92v79h63v-513zM402 256q0 78 -38 139q-44 71 -117 71q-72 0 -117 -72q-40 -62 -40 -138q0 -77 39 -138q45 -71 118 -71q75 0 118 70q37 59 37 139z" />
    <glyph glyph-name="b" unicode="b" horiz-adv-x="504" 
d="M480 256q0 -130 -62 -199t-159 -69q-91 0 -152 87v-75h-63v770h63v-340q61 90 159 90q109 0 165 -80q49 -70 49 -184zM414 249q0 211 -155 211q-70 0 -114 -72q-38 -63 -38 -137q0 -70 39 -133q45 -71 111 -71q65 0 111 51t46 151z" />
    <glyph glyph-name="c" unicode="c" horiz-adv-x="461" 
d="M441 159q-22 -77 -72 -122q-55 -50 -131 -50q-101 0 -162 87q-55 77 -55 182q0 104 56 183q63 87 163 87q74 0 128 -47q50 -44 71 -118h-67q-37 104 -135 104q-73 0 -115 -70q-34 -59 -34 -138q0 -78 35 -138q42 -72 115 -72q49 0 86 33q34 30 49 79h68z" />
    <glyph glyph-name="d" unicode="d" horiz-adv-x="504" 
d="M459 0h-63v72q-26 -38 -67.5 -61t-86.5 -23q-101 0 -163 85q-56 77 -56 182q0 103 55 180q62 85 161 85t157 -87v337h63v-770zM396 251q0 76 -37 137q-44 72 -115 72t-115 -69q-39 -60 -39 -134q0 -76 38 -138q45 -72 117 -72q69 0 113 70q38 61 38 134z" />
    <glyph glyph-name="e" unicode="e" horiz-adv-x="486" 
d="M462 238h-372q0 -84 35 -134q41 -57 122 -57q98 0 137 91h68q-67 -151 -205 -151q-115 0 -173 81q-51 71 -51 190q0 112 54 186q60 83 168 83q115 0 171 -92q46 -75 46 -197zM398 293q-17 172 -155 172q-133 0 -152 -172h307z" />
    <glyph glyph-name="f" unicode="f" horiz-adv-x="175" 
d="M192 710q-13 5 -26 5q-35 0 -46 -40q-6 -21 -6 -68v-94h65v-60h-65v-453h-61v453h-53v60h53v114q0 149 109 149q9 0 30 -6v-60z" />
    <glyph glyph-name="g" unicode="g" horiz-adv-x="508" 
d="M463 61q0 -299 -216 -299q-72 0 -130 44q-61 47 -69 117h74q24 -100 122 -100q38 0 67 13q89 40 89 253q-60 -89 -156 -89q-105 0 -166 84q-55 75 -55 184q0 103 57 178q63 83 163 83q90 0 157 -87v71h63v-452zM403 272q0 70 -42 130q-47 66 -114 66q-72 0 -117 -66
q-40 -58 -40 -133q0 -84 36 -141q43 -68 122 -68q71 0 116 73q39 63 39 139z" />
    <glyph glyph-name="h" unicode="h" horiz-adv-x="441" 
d="M398 0h-62v297q0 161 -104 161q-71 0 -102 -80q-22 -55 -22 -139v-239h-63v770h62v-336q46 84 134 84q84 0 124 -64q33 -53 33 -142v-312z" />
    <glyph glyph-name="i" unicode="i" horiz-adv-x="153" 
d="M108 607h-63v77h63v-77zM108 0h-63v513h63v-513z" />
    <glyph glyph-name="j" unicode="j" horiz-adv-x="156" 
d="M110 609h-63v77h63v-77zM110 -87q0 -150 -140 -150v58q48 0 64 27q13 20 13 68v597h63v-600z" />
    <glyph glyph-name="k" unicode="k" horiz-adv-x="368" 
d="M366 0h-74l-182 271l165 242h73l-172 -242zM109 0h-64v770h64v-770z" />
    <glyph glyph-name="l" unicode="l" horiz-adv-x="160" 
d="M112 0h-64v770h64v-770z" />
    <glyph glyph-name="m" unicode="m" horiz-adv-x="694" 
d="M650 0h-63v316q0 56 -20 97q-26 53 -76 53q-55 0 -86 -65q-25 -51 -25 -113v-288h-63v290q0 176 -98 176q-56 0 -87 -68q-24 -53 -24 -117v-281h-62v513h57v-73q49 83 125 83q94 0 130 -91q20 41 57.5 66t82.5 25q81 0 120 -62q32 -51 32 -137v-324z" />
    <glyph glyph-name="n" unicode="n" horiz-adv-x="452" 
d="M408 0h-63v303q0 65 -21 107q-28 54 -87 54q-69 0 -103 -81q-24 -60 -24 -141v-242h-64v513h61v-75q50 85 136 85t129 -64q36 -54 36 -145v-314z" />
    <glyph glyph-name="o" unicode="o" horiz-adv-x="484" 
d="M463 260q0 -107 -55 -185q-62 -88 -165 -88t-166 85q-56 77 -56 184q0 106 55 184q63 88 164 88q100 0 164 -86q59 -79 59 -182zM399 256q0 83 -36 141q-43 68 -121 68t-120 -68q-36 -57 -36 -140q0 -82 36 -140q43 -68 120 -68t120 68q37 57 37 139z" />
    <glyph glyph-name="p" unicode="p" horiz-adv-x="508" 
d="M484 258q0 -107 -55 -184q-62 -85 -166 -85q-92 0 -157 89v-304h-62v739h62v-76q67 91 159 91q104 0 165 -86q54 -76 54 -184zM419 259q0 81 -37 140q-44 69 -121 69q-70 0 -116 -72q-41 -64 -41 -138q0 -72 41 -135q47 -72 115 -72q31 0 61 16q98 52 98 192z" />
    <glyph glyph-name="q" unicode="q" horiz-adv-x="508" 
d="M464 -226h-63v304q-65 -89 -156 -89q-115 0 -172 80q-50 69 -50 189q0 108 54 185q62 85 166 85q90 0 157 -91v76h64v-739zM403 258q0 73 -40 137q-46 73 -115 73q-77 0 -121 -69q-37 -58 -37 -140q0 -88 34 -142q40 -66 123 -66q30 0 60 18q46 28 72 82q24 50 24 107z
" />
    <glyph glyph-name="r" unicode="r" horiz-adv-x="242" 
d="M232 454q-15 6 -33 6q-87 0 -87 -152v-308h-64v513h61v-61q29 67 98 67q17 0 25 -5v-60z" />
    <glyph glyph-name="s" unicode="s" horiz-adv-x="317" 
d="M295 140q0 -67 -36 -110t-103 -43q-68 0 -104 51q-32 44 -32 115h64q0 -106 73 -106q75 0 75 87q0 58 -50 89q-46 25 -92 51q-50 37 -50 110q0 60 31 101q35 44 93 44t88 -39q28 -35 28 -95h-65q0 74 -54 74q-58 0 -58 -81q0 -33 18 -52t39 -30q70 -37 95 -63
q40 -40 40 -103z" />
    <glyph glyph-name="t" unicode="t" horiz-adv-x="195" 
d="M196 453h-67v-453h-62v453h-61v60h61v142h62v-142h67v-60z" />
    <glyph glyph-name="u" unicode="u" horiz-adv-x="446" 
d="M400 0h-61v71q-53 -83 -135 -83q-163 0 -163 225v300h64v-283q0 -182 104 -182q71 0 103 77q23 55 23 139v249h65v-513z" />
    <glyph glyph-name="v" unicode="v" horiz-adv-x="388" 
d="M385 513l-164 -513h-54l-164 513h67l124 -406l123 406h68z" />
    <glyph glyph-name="w" unicode="w" horiz-adv-x="564" 
d="M559 513l-142 -513h-42l-93 382l-92 -382h-42l-143 513h68l95 -376l92 376h46l90 -376l96 376h67z" />
    <glyph glyph-name="x" unicode="x" horiz-adv-x="361" 
d="M353 0h-70l-103 208l-105 -208h-70l139 266l-127 247h71l93 -188l95 188h71l-130 -245z" />
    <glyph glyph-name="y" unicode="y" horiz-adv-x="404" 
d="M407 513l-239 -743h-65l75 235l-172 508h67l138 -408l128 408h68z" />
    <glyph glyph-name="z" unicode="z" horiz-adv-x="323" 
d="M305 0h-294v57l216 396h-191v60h258v-60l-215 -393h226v-60z" />
    <glyph glyph-name="braceleft" unicode="{" horiz-adv-x="413" 
d="M348 -211h-24q-87 0 -117 41q-27 37 -27 150v48q1 31 1 46q0 101 -21.5 132.5t-84.5 31.5v48q64 0 85 32t21 128q0 16 -1 51v51q0 110 27 146q16 21 43 30.5t98 9.5v-50q-73 0 -89 -27t-16 -101v-123q0 -69 -14 -102q-17 -42 -72 -70q55 -28 73 -70q13 -32 13 -102v-123
q0 -70 15 -98q11 -21 40 -26q13 -3 50 -3v-50z" />
    <glyph glyph-name="bar" unicode="|" horiz-adv-x="415" 
d="M232 -226h-49v980h49v-980z" />
    <glyph glyph-name="braceright" unicode="}" horiz-adv-x="413" 
d="M338 238q-61 0 -83 -31.5t-22 -130.5v-49q1 -33 1 -50q0 -110 -27 -147q-20 -28 -65 -37q-23 -4 -77 -4v50q37 0 51 3q29 5 40 26q14 27 14 98v123q0 70 13 102q18 42 73 70q-55 28 -72 70q-14 33 -14 102v123q0 74 -16 101t-89 27v50h24q87 0 116 -38.5t29 -151.5
q0 -16 -1 -47v-47q0 -99 21 -131.5t84 -32.5v-48z" />
    <glyph glyph-name="asciitilde" unicode="~" horiz-adv-x="583" 
d="M535 317q-74 -77 -140 -77q-41 0 -107 39t-101 39q-55 0 -139 -90v61q74 80 138 80q41 0 108.5 -39.5t100.5 -39.5q53 0 140 90v-63z" />
    <glyph glyph-name="currency" unicode="&#xa4;" horiz-adv-x="589" 
d="M553 204l-35 -35l-98 100q-57 -44 -124 -44q-68 0 -125 44l-99 -100l-35 35l100 99q-43 56 -43 123q0 66 43 124l-100 99l34 34l99 -99q60 43 124 43q70 0 125 -43l99 99l35 -33l-100 -100q42 -56 42 -124q0 -69 -42 -123zM448 427q0 62 -45 107t-107 45t-108 -44.5
t-46 -106.5q0 -64 45 -109t109 -45q62 0 106.5 46t44.5 108z" />
    <glyph glyph-name="brokenbar" unicode="&#xa6;" horiz-adv-x="415" 
d="M233 341h-50v376h50v-376zM233 -179h-50v376h50v-376z" />
    <glyph glyph-name="section" unicode="&#xa7;" horiz-adv-x="415" 
d="M376 304q0 -89 -86 -139q49 -53 49 -113q0 -63 -37 -103.5t-100 -40.5q-137 0 -137 156h65v-21q0 -36 20 -59t56 -23t56 26q17 24 17 61q0 39 -32 74q-11 12 -63 55q-40 33 -80 65q-52 47 -61 78q-5 18 -5 37q0 84 84 146q-47 45 -47 103q0 62 35 102.5t96 40.5
q67 0 100 -41.5t33 -109.5h-59q0 40 -18 68q-20 32 -58 32q-33 0 -51 -27q-15 -23 -15 -57q0 -43 25.5 -69.5t124.5 -94.5q88 -61 88 -146zM311 293q0 62 -69 112l-89 65q-52 -30 -52 -90q0 -58 66 -108l95 -72q49 40 49 93z" />
    <glyph glyph-name="copyright" unicode="&#xa9;" 
d="M781 357q0 -147 -107.5 -254.5t-254.5 -107.5q-148 0 -254.5 106.5t-106.5 254.5q0 146 107 254t253 108q151 0 257 -105t106 -256zM739 356q0 133 -93.5 226.5t-226.5 93.5q-131 0 -225.5 -94.5t-94.5 -224.5t95 -225t225 -95q124 0 222 97.5t98 221.5zM591 276
q-6 -66 -55.5 -103.5t-117.5 -37.5q-94 0 -144 66q-45 60 -45 157q0 95 48 155q53 65 145 65q65 0 110 -32q48 -35 55 -97h-63q-16 81 -105 81q-65 0 -96 -58q-24 -45 -24 -116q0 -69 26 -114q32 -56 96 -56q43 0 72 24t36 66h62z" />
    <glyph glyph-name="guillemotleft" unicode="&#xab;" horiz-adv-x="398" 
d="M332 119h-51l-96 151l95 151h52l-93 -151zM199 421l-95 -151l94 -151h-50l-95 151l95 151h51z" />
    <glyph glyph-name="logicalnot" unicode="&#xac;" 
d="M714 176h-56v188h-533v58h589v-246z" />
    <glyph glyph-name="registered" unicode="&#xae;" 
d="M781 357q0 -141 -110.5 -251.5t-251.5 -110.5q-147 0 -254 106.5t-107 254.5q0 145 107.5 253.5t252.5 108.5q151 0 257 -105t106 -256zM739 354q0 136 -92.5 229t-227.5 93q-131 0 -225.5 -94t-94.5 -225q0 -130 94.5 -225t223.5 -95q132 0 227 92.5t95 224.5zM600 456
q0 -45 -31.5 -79t-76.5 -41l104 -179h-77l-106 179h-68v-179h-69v412h153q171 0 171 -113zM530 449q0 75 -112 75h-73v-144h77q108 0 108 69z" />
    <glyph glyph-name="degree" unicode="&#xb0;" horiz-adv-x="271" 
d="M250 576q0 -52 -30 -92q-33 -43 -84 -43q-52 0 -85 42q-30 39 -30 92q0 52 32 93t83 41t84 -42q30 -39 30 -91zM218 575q0 41 -20 73q-24 37 -62 37t-62 -37q-20 -32 -20 -72t20 -73q24 -37 62 -37q39 0 62 37q20 31 20 72z" />
    <glyph glyph-name="plusminus" unicode="&#xb1;" 
d="M714 354h-266v-170h-57v169h-266v57h266v170h57v-169h266v-57zM714 19h-589v58h589v-58z" />
    <glyph glyph-name="paragraph" unicode="&#xb6;" horiz-adv-x="502" 
d="M466 690h-61v-690h-45v690h-92v-690h-46v385q-81 4 -131 46q-54 46 -54 125q0 81 57 128q52 43 135 43h237v-37z" />
    <glyph glyph-name="guillemotright" unicode="&#xbb;" horiz-adv-x="398" 
d="M347 271l-96 -152h-50l94 150l-94 152h50zM213 271l-95 -152h-51l94 150l-94 152h51z" />
    <glyph glyph-name="mu" unicode="&#xb5;" horiz-adv-x="556" 
d="M528 526l-78 -370q-13 -62 -13 -65q0 -35 38 -35q8 0 28 2l-16 -58q-33 -9 -57 -9q-36 0 -52 20q-14 17 -18 55q-44 -75 -141 -75q-84 0 -130 69l-56 -271h-77l156 737h77l-62 -293q-8 -38 -8 -68q0 -112 106 -112q124 0 168 204l58 269h77z" />
    <glyph glyph-name="mu" unicode="&#x3bc;" horiz-adv-x="556" 
d="M528 526l-78 -370q-13 -62 -13 -65q0 -35 38 -35q8 0 28 2l-16 -58q-33 -9 -57 -9q-36 0 -52 20q-14 17 -18 55q-44 -75 -141 -75q-84 0 -130 69l-56 -271h-77l156 737h77l-62 -293q-8 -38 -8 -68q0 -112 106 -112q124 0 168 204l58 269h77z" />
    <glyph glyph-name="afii10023" unicode="&#x401;" horiz-adv-x="410" 
d="M316 801h-66v78h66v-78zM171 801h-65v78h65v-78zM363 -1h-309v720h309v-65h-238v-257h222v-64h-222v-268h238v-66z" />
    <glyph glyph-name="afii10017" unicode="&#x410;" horiz-adv-x="500" 
d="M512 0h-73l-71 227h-237l-70 -227h-74l229 720h67zM347 293l-97 316l-98 -316h195z" />
    <glyph glyph-name="afii10018" unicode="&#x411;" horiz-adv-x="440" 
d="M413 213q0 -100 -53.5 -156.5t-153.5 -56.5h-151v720h321v-65h-251v-231q89 0 82 0q47 -1 80 -12q126 -40 126 -199zM341 213q0 146 -135 146h-81v-294h80q136 0 136 148z" />
    <glyph glyph-name="afii10019" unicode="&#x412;" horiz-adv-x="433" 
d="M404 213q0 -213 -214 -213h-134v720h119q195 0 195 -189q0 -46 -20 -86q-23 -44 -62 -61q116 -42 116 -171zM299 533q0 122 -124 122h-50v-251h57q117 0 117 129zM333 201q0 73 -29 107q-31 38 -102 38h-77v-281h70q138 0 138 136z" />
    <glyph glyph-name="afii10020" unicode="&#x413;" horiz-adv-x="361" 
d="M348 655h-224v-655h-70v720h294v-65z" />
    <glyph glyph-name="afii10021" unicode="&#x414;" horiz-adv-x="528" 
d="M527 -135h-67v135h-392v-135h-67v201h38l191 655h68l190 -655h39v-201zM418 66l-154 549l-155 -549h309z" />
    <glyph glyph-name="afii10022" unicode="&#x415;" horiz-adv-x="410" 
d="M363 0h-309v720h309v-64h-238v-257h222v-64h-222v-269h238v-66z" />
    <glyph glyph-name="afii10024" unicode="&#x416;" horiz-adv-x="714" 
d="M713 0h-86l-234 367l232 353h83l-239 -351zM392 0h-70v720h70v-720zM321 367l-234 -367h-86l244 369l-240 351h84z" />
    <glyph glyph-name="afii10025" unicode="&#x417;" horiz-adv-x="438" 
d="M406 195q0 -85 -50 -145q-54 -64 -137 -64t-138 63q-53 60 -53 144h76q0 -55 28 -94q31 -44 84 -44q58 0 89 43q28 37 28 97q0 64 -28 104q-33 46 -95 46h-55v62h55q53 0 82 40q27 37 27 91q0 48 -23 85q-28 42 -73 42q-47 0 -75 -36t-28 -84h-74q0 73 48.5 130.5
t120.5 57.5q78 0 128 -58q47 -55 47 -135q0 -112 -90 -161q106 -54 106 -184z" />
    <glyph glyph-name="afii10026" unicode="&#x418;" horiz-adv-x="566" 
d="M512 0h-72v589l-313 -589h-73v720h71v-589l314 589h73v-720z" />
    <glyph glyph-name="afii10027" unicode="&#x419;" horiz-adv-x="566" 
d="M408 907q0 -57 -33 -97t-90 -40q-58 0 -90.5 39t-32.5 98h56q0 -85 67 -85q65 0 65 85h58zM512 0h-72v588l-313 -588h-73v720h71v-589l314 589h73v-720z" />
    <glyph glyph-name="afii10028" unicode="&#x41a;" horiz-adv-x="462" 
d="M459 0h-84l-248 367l246 353h82l-251 -351zM126 0h-71v720h71v-720z" />
    <glyph glyph-name="afii10029" unicode="&#x41b;" horiz-adv-x="426" 
d="M492 0h-74l-177 609l-175 -609h-75l216 720h68z" />
    <glyph glyph-name="afii10030" unicode="&#x41c;" horiz-adv-x="700" 
d="M646 0h-69v571q0 12 2 37t2 37h-1l-203 -645h-54l-203 645h-1q0 -12 2 -37t2 -37v-571h-69v720h108l188 -602l188 602h108v-720z" />
    <glyph glyph-name="afii10031" unicode="&#x41d;" horiz-adv-x="517" 
d="M463 0h-71v334h-267v-334h-71v720h71v-319h267v319h71v-720z" />
    <glyph glyph-name="afii10032" unicode="&#x41e;" horiz-adv-x="662" 
d="M637 365q0 -117 -41 -206q-48 -104 -144 -148q-56 -26 -122 -26q-65 0 -121 26q-95 45 -143 148q-41 89 -41 205q0 88 25 158q35 98 106 153q74 59 175 59t176 -58q72 -55 106 -153q24 -68 24 -158zM564 366q0 118 -56 202q-65 97 -178 97q-45 0 -88 -20
q-73 -34 -111 -119q-33 -72 -33 -162q0 -93 31 -165q37 -85 111 -122q44 -22 92 -22q116 0 179 102q53 86 53 209z" />
    <glyph glyph-name="afii10033" unicode="&#x41f;" horiz-adv-x="510" 
d="M455 0h-71v653h-259v-653h-71v720h401v-720z" />
    <glyph glyph-name="afii10034" unicode="&#x420;" horiz-adv-x="432" 
d="M411 507q0 -150 -123 -190q-33 -11 -80 -12q11 0 -82 0v-305h-70v720h153q97 0 151 -58q51 -57 51 -155zM338 507q0 84 -39.5 116.5t-97.5 32.5h-75v-287h75q57 0 97 30t40 108z" />
    <glyph glyph-name="afii10035" unicode="&#x421;" horiz-adv-x="620" 
d="M590 167q-34 -84 -103 -132.5t-158 -48.5q-140 0 -226 123q-77 109 -77 255q0 105 47 196q50 96 138 144q55 30 117 30q91 0 161 -51q67 -50 101 -137h-82q-72 116 -180 116q-46 0 -88 -24q-68 -39 -106 -118q-35 -73 -35 -156q0 -111 58 -203q66 -105 170 -105
q111 0 178 111h85z" />
    <glyph glyph-name="afii10036" unicode="&#x422;" horiz-adv-x="338" 
d="M328 655h-123v-655h-72v654h-123v66h318v-65z" />
    <glyph glyph-name="afii10037" unicode="&#x423;" horiz-adv-x="498" 
d="M495 720l-259 -720h-70l54 144l-215 576h72l178 -477l169 477h71z" />
    <glyph glyph-name="afii10038" unicode="&#x424;" horiz-adv-x="629" 
d="M607 378q0 -178 -133 -226q-42 -15 -124 -15v-137h-71v137q-81 0 -123 15q-134 48 -134 226q0 180 142 222q40 12 116 12v108h69v-108q75 0 116 -12q142 -42 142 -222zM535 373q0 99 -43 137t-114 38h-29v-346h29q157 0 157 171zM280 202v346h-29q-70 0 -113.5 -38
t-43.5 -137q0 -171 157 -171h29z" />
    <glyph glyph-name="afii10039" unicode="&#x425;" horiz-adv-x="484" 
d="M479 0h-82l-155 298l-157 -298h-81l199 363l-194 357h83l150 -293l150 293h83l-195 -356z" />
    <glyph glyph-name="afii10040" unicode="&#x426;" horiz-adv-x="509" 
d="M503 -135h-67v135h-380v721h71v-655h251v655h69v-655h56v-201z" />
    <glyph glyph-name="afii10041" unicode="&#x427;" horiz-adv-x="440" 
d="M383 0h-70v334q-69 -31 -132 -31q-148 0 -148 184v233h68v-226q0 -126 90 -126q58 0 121 37v315h71v-720z" />
    <glyph glyph-name="afii10042" unicode="&#x428;" horiz-adv-x="728" 
d="M673 0h-619v720h70v-655h204v655h70v-655h205v655h70v-720z" />
    <glyph glyph-name="afii10043" unicode="&#x429;" horiz-adv-x="736" 
d="M730 -135h-67v135h-607v721h71v-655h205v655h69v-655h205v655h70v-655h54v-201z" />
    <glyph glyph-name="afii10044" unicode="&#x42a;" horiz-adv-x="482" 
d="M458 211q0 -101 -54 -156t-155 -55h-140v654h-99v66h169v-298q114 0 152 -12q127 -40 127 -199zM385 211q0 145 -136 145h-70v-291h70q55 0 95.5 31.5t40.5 114.5z" />
    <glyph glyph-name="afii10045" unicode="&#x42b;" horiz-adv-x="575" 
d="M520 0h-71v720h71v-720zM401 211q0 -100 -54 -155.5t-154 -55.5h-138v720h71v-298q111 0 149 -12q126 -40 126 -199zM329 211q0 145 -136 145h-67v-291h66q137 0 137 146z" />
    <glyph glyph-name="afii10046" unicode="&#x42c;" horiz-adv-x="429" 
d="M405 211q0 -100 -54 -155.5t-154 -55.5h-141v720h70v-298q115 0 153 -12q126 -40 126 -199zM333 211q0 145 -136 145h-71v-291h70q137 0 137 146z" />
    <glyph glyph-name="afii10047" unicode="&#x42d;" horiz-adv-x="609" 
d="M583 365q0 -157 -68 -260q-79 -120 -229 -120q-88 0 -154.5 49t-100.5 133h82q58 -113 175 -113q44 0 85 22q66 35 102 110q33 68 33 148h-255v67h255q0 97 -60 177q-66 87 -160 87q-109 0 -177 -119h-80q33 86 97 136q69 52 158 52q64 0 119 -27q91 -45 137 -144
q41 -87 41 -198z" />
    <glyph glyph-name="afii10048" unicode="&#x42e;" horiz-adv-x="811" 
d="M785 365q0 -157 -68 -260q-79 -120 -228 -120q-132 0 -212 111q-70 95 -79 235h-74v-331h-70v720h70v-320h73q10 136 81 229q81 106 211 106q150 0 229 -114q67 -99 67 -256zM713 359q0 121 -50 205q-61 101 -174 101q-111 0 -171 -100q-51 -83 -51 -201q0 -121 50 -206
q60 -103 173 -103q115 0 174 99q49 81 49 205z" />
    <glyph glyph-name="afii10049" unicode="&#x42f;" horiz-adv-x="453" 
d="M398 0h-71v655h-75q-150 0 -150 -153q0 -121 98 -144q30 -7 121 -7l-206 -351h-82l186 303q-87 0 -137.5 56t-50.5 144q0 98 54.5 157.5t152.5 59.5h160v-720z" />
    <glyph glyph-name="afii10065" unicode="&#x430;" horiz-adv-x="508" 
d="M463 0h-61v75q-62 -87 -158 -87q-102 0 -165 86q-56 77 -56 183q0 105 57 183q63 86 164 86q97 0 156 -92v79h63v-513zM402 256q0 78 -38 139q-44 71 -117 71q-76 0 -120 -70q-37 -60 -37 -140q0 -97 46 -153t111 -56q75 0 118 70q37 59 37 139z" />
    <glyph glyph-name="afii10066" unicode="&#x431;" horiz-adv-x="480" 
d="M456 253q0 -106 -52 -181q-59 -85 -161 -85t-160 83q-52 74 -52 180v143q0 314 154 363q44 14 91 14h150v-58h-150q-34 0 -65 -11q-116 -42 -116 -286q22 40 67 66t92 26q99 0 154 -80q48 -70 48 -174zM392 248q0 77 -32 133q-39 67 -110 67q-73 0 -117 -66
q-38 -57 -38 -134q0 -82 32 -136q40 -66 116 -66q75 0 115 67q34 55 34 135z" />
    <glyph glyph-name="afii10067" unicode="&#x432;" horiz-adv-x="380" 
d="M358 142q0 -67 -39 -104.5t-106 -37.5h-168v513h162q60 0 94.5 -37.5t34.5 -98.5q0 -84 -60 -107q82 -36 82 -128zM276 377q0 45 -24 63t-52 18h-92v-169h88q80 0 80 88zM291 145q0 93 -87 93h-96v-183h99q84 0 84 90z" />
    <glyph glyph-name="afii10068" unicode="&#x433;" horiz-adv-x="279" 
d="M270 454h-160v-454h-64v513h224v-59z" />
    <glyph glyph-name="afii10069" unicode="&#x434;" horiz-adv-x="413" 
d="M411 -110h-61v110h-287v-110h-61v168h38l134 455h64l135 -455h38v-168zM306 58l-99 357h-1l-100 -357h200z" />
    <glyph glyph-name="afii10070" unicode="&#x435;" horiz-adv-x="486" 
d="M462 238h-372q0 -84 36 -135q40 -58 121 -58q92 0 135 93h70q-67 -151 -205 -151q-115 0 -173 81q-51 71 -51 190q0 112 54 186q60 83 168 83q115 0 171 -92q46 -75 46 -197zM398 293q-17 172 -155 172q-133 0 -152 -172h307z" />
    <glyph glyph-name="afii10072" unicode="&#x436;" horiz-adv-x="572" 
d="M570 0h-77l-174 266l173 247h70l-176 -244zM318 0h-63v513h63v-513zM254 266l-175 -266h-76l183 269l-175 244h70z" />
    <glyph glyph-name="afii10073" unicode="&#x437;" horiz-adv-x="378" 
d="M353 138q0 -67 -49.5 -109t-117.5 -42q-73 0 -119 43t-46 115h69q0 -43 26 -71.5t69 -28.5q46 0 73.5 24.5t27.5 69.5q0 100 -93 100h-45v53q42 0 61 4q65 14 65 86q0 47 -26.5 67.5t-56.5 20.5q-41 0 -66 -22t-25 -62h-66q0 67 47 106q43 36 112 36q67 0 106.5 -40
t39.5 -106q0 -82 -72 -112q86 -32 86 -132z" />
    <glyph glyph-name="afii10074" unicode="&#x438;" horiz-adv-x="451" 
d="M407 0h-64v409l-230 -409h-69v513h64v-409l231 409h68v-513z" />
    <glyph glyph-name="afii10075" unicode="&#x439;" horiz-adv-x="449" 
d="M337 690q0 -53 -29.5 -83t-82.5 -30t-82.5 30t-29.5 83h53q0 -68 59 -68q28 0 43.5 20t15.5 48h53zM405 0h-64v405l-228 -405h-68v513h63v-409l229 409h68v-513z" />
    <glyph glyph-name="afii10076" unicode="&#x43a;" horiz-adv-x="376" 
d="M375 0h-77l-188 266l183 247h74l-190 -244zM109 0h-64v513h64v-513z" />
    <glyph glyph-name="afii10077" unicode="&#x43b;" horiz-adv-x="379" 
d="M380 0h-68l-123 403l-120 -403h-69l161 513h57z" />
    <glyph glyph-name="afii10078" unicode="&#x43c;" horiz-adv-x="553" 
d="M508 0h-61v359q0 9 1 28t1 28l-144 -415h-56l-145 415q0 -9 1 -27t1 -27v-361h-61v513h89l142 -431l143 431h89v-513z" />
    <glyph glyph-name="afii10079" unicode="&#x43d;" horiz-adv-x="433" 
d="M388 0h-64v234h-216v-234h-64v513h64v-222h216v222h64v-513z" />
    <glyph glyph-name="afii10080" unicode="&#x43e;" horiz-adv-x="484" 
d="M463 260q0 -107 -55 -185q-62 -88 -165 -88t-166 85q-56 77 -56 184q0 106 55 184q63 88 164 88q100 0 164 -86q59 -79 59 -182zM398 256q0 83 -36 140q-42 69 -120 69t-120 -68q-36 -57 -36 -140q0 -82 36 -140q43 -68 120 -68t120 68q36 57 36 139z" />
    <glyph glyph-name="afii10081" unicode="&#x43f;" horiz-adv-x="426" 
d="M381 0h-64v455h-208v-455h-64v513h336v-513z" />
    <glyph glyph-name="afii10082" unicode="&#x440;" horiz-adv-x="508" 
d="M484 258q0 -107 -55 -184q-62 -85 -166 -85q-92 0 -157 89v-304h-62v739h62v-76q67 91 159 91q104 0 165 -86q54 -76 54 -184zM419 259q0 81 -37 140q-44 69 -121 69q-70 0 -116 -72q-41 -64 -41 -138q0 -72 41 -135q47 -72 115 -72q31 0 61 16q98 52 98 192z" />
    <glyph glyph-name="afii10083" unicode="&#x441;" horiz-adv-x="461" 
d="M441 159q-22 -77 -72 -122q-55 -50 -131 -50q-101 0 -162 87q-55 77 -55 182q0 104 56 183q63 87 163 87q74 0 128 -47q50 -44 71 -118h-67q-37 104 -135 104q-73 0 -115 -70q-34 -59 -34 -138q0 -78 35 -138q42 -72 115 -72q49 0 86 33q34 30 49 79h68z" />
    <glyph glyph-name="afii10084" unicode="&#x442;" horiz-adv-x="296" 
d="M290 456h-110v-456h-64v456h-110v57h284v-57z" />
    <glyph glyph-name="afii10085" unicode="&#x443;" horiz-adv-x="404" 
d="M407 513l-239 -743h-65l75 235l-172 508h67l138 -408l128 408h68z" />
    <glyph glyph-name="afii10086" unicode="&#x444;" horiz-adv-x="720" 
d="M697 257q0 -103 -46 -178q-54 -89 -151 -89q-59 0 -110 44v-259h-61v259q-51 -44 -109 -44q-96 0 -151 89q-46 75 -46 177t46 178q54 90 149 90q60 0 111 -49v298h60v-298q54 49 112 49q95 0 150 -90q46 -76 46 -177zM633 257q0 76 -30 134q-37 72 -106 72
q-75 0 -117 -65v-282q41 -66 115 -66q69 0 107 73q31 59 31 134zM330 115v282q-42 66 -107 66q-69 0 -107 -72q-30 -58 -30 -134q0 -75 31 -134q39 -73 108 -73q65 0 105 65z" />
    <glyph glyph-name="afii10087" unicode="&#x445;" horiz-adv-x="361" 
d="M353 0h-70l-103 208l-105 -208h-70l139 266l-127 247h71l93 -188l95 188h71l-130 -245z" />
    <glyph glyph-name="afii10088" unicode="&#x446;" horiz-adv-x="423" 
d="M422 -110h-61v110h-317v513h64v-455h205v455h63v-455h46v-168z" />
    <glyph glyph-name="afii10089" unicode="&#x447;" horiz-adv-x="384" 
d="M339 0h-65v224q-48 -20 -110 -20q-63 0 -98.5 39.5t-35.5 102.5v167h63v-153q0 -102 72 -102q62 0 109 26v229h65v-513z" />
    <glyph glyph-name="afii10090" unicode="&#x448;" horiz-adv-x="624" 
d="M579 0h-533v513h61v-456h173v456h64v-456h172v456h63v-513z" />
    <glyph glyph-name="afii10091" unicode="&#x449;" horiz-adv-x="629" 
d="M626 -110h-60v110h-520v513h63v-455h174v455h61v-455h173v455h64v-455h45v-168z" />
    <glyph glyph-name="afii10092" unicode="&#x44a;" horiz-adv-x="391" 
d="M368 151q0 -70 -38 -110.5t-108 -40.5h-142v455h-80v58h143v-213h80q145 0 145 -149zM304 151q0 92 -86 92h-75v-186h75q86 0 86 94z" />
    <glyph glyph-name="afii10093" unicode="&#x44b;" horiz-adv-x="486" 
d="M440 0h-65v513h65v-513zM327 151q0 -67 -36 -109t-102 -42h-143v513h63v-212h86q66 0 101 -43q31 -40 31 -107zM265 151q0 92 -81 92h-75v-185h74q82 0 82 93z" />
    <glyph glyph-name="afii10094" unicode="&#x44c;" horiz-adv-x="360" 
d="M338 151q0 -69 -38.5 -110t-107.5 -41h-147v513h63v-213h84q69 0 107.5 -40t38.5 -109zM273 151q0 92 -85 92h-80v-185h79q86 0 86 93z" />
    <glyph glyph-name="afii10095" unicode="&#x44d;" horiz-adv-x="460" 
d="M439 256q0 -102 -57 -181q-63 -88 -161 -88q-75 0 -129 50q-50 46 -71 122h67q16 -48 49 -78q37 -33 84 -33q68 0 109 61q34 50 41 124h-186v57h186q-11 71 -43 117q-41 58 -105 58q-94 0 -133 -104h-69q21 73 72 117q54 48 127 48q98 0 162 -88q57 -80 57 -182z" />
    <glyph glyph-name="afii10096" unicode="&#x44e;" horiz-adv-x="616" 
d="M593 263q0 -113 -50 -188q-59 -87 -167 -87q-95 0 -153 78q-50 68 -56 168h-60v-234h-62v513h62v-223h59q9 93 61 161q59 78 146 78q106 0 166 -82q54 -74 54 -184zM528 257q0 82 -35 141q-42 71 -118 71q-71 0 -112 -74q-34 -62 -34 -139q0 -76 34 -136q41 -72 112 -72
q80 0 120 68q33 56 33 141z" />
    <glyph glyph-name="afii10097" unicode="&#x44f;" horiz-adv-x="369" 
d="M323 0h-63v455h-86q-37 0 -59 -27.5t-22 -65.5q0 -69 52 -87q22 -7 110 -7l-156 -268h-68l133 221q-61 0 -98.5 39.5t-37.5 100.5q0 62 41 107t102 45h152v-513z" />
    <glyph glyph-name="afii10071" unicode="&#x451;" horiz-adv-x="488" 
d="M358 607h-62v77h62v-77zM190 607h-61v77h61v-77zM464 237h-373q1 -85 36 -134q40 -57 121 -57q54 0 84.5 20.5t50.5 70.5h70q-67 -151 -205 -151q-114 0 -173 81q-51 71 -51 190q0 112 54 186q60 83 168 83q116 0 172 -91q46 -75 46 -198zM395 291q-9 81 -39 122
q-37 51 -112 51q-133 0 -152 -172z" />
    <glyph glyph-name="endash" unicode="&#x2013;" horiz-adv-x="407" 
d="M409 238h-411v62h411v-62z" />
    <glyph glyph-name="emdash" unicode="&#x2014;" horiz-adv-x="816" 
d="M819 238h-821v62h821v-62z" />
    <glyph glyph-name="quoteleft" unicode="&#x2018;" horiz-adv-x="159" 
d="M136 511h-57l-60 210h56z" />
    <glyph glyph-name="quoteright" unicode="&#x2019;" horiz-adv-x="158" 
d="M154 721l-61 -210h-57l60 210h58z" />
    <glyph glyph-name="quotesinglbase" unicode="&#x201a;" horiz-adv-x="158" 
d="M127 131l-61 -211h-56l60 211h57z" />
    <glyph glyph-name="quotedblleft" unicode="&#x201c;" horiz-adv-x="275" 
d="M253 511h-59l-60 210h57zM137 511h-58l-61 210h58z" />
    <glyph glyph-name="quotedblright" unicode="&#x201d;" horiz-adv-x="275" 
d="M270 721l-62 -210h-57l60 210h59zM154 721l-61 -210h-58l61 210h58z" />
    <glyph glyph-name="quotedblbase" unicode="&#x201e;" horiz-adv-x="275" 
d="M245 131l-62 -211h-57l60 211h59zM129 131l-61 -211h-58l61 211h58z" />
    <glyph glyph-name="dagger" unicode="&#x2020;" horiz-adv-x="415" 
d="M389 454h-147v-569h-69v568h-146v60h146v204h69v-204h147v-59z" />
    <glyph glyph-name="bullet" unicode="&#x2022;" horiz-adv-x="594" 
d="M442 375q0 -60 -43 -103.5t-103 -43.5t-102.5 43t-42.5 103t43 102.5t103 42.5t102.5 -42.5t42.5 -101.5z" />
    <glyph glyph-name="ellipsis" unicode="&#x2026;" horiz-adv-x="810" 
d="M704 0h-58v130h58v-130zM434 0h-58v130h58v-130zM164 0h-57v130h57v-130z" />
    <glyph glyph-name="perthousand" unicode="&#x2030;" horiz-adv-x="1030" 
d="M1003 158q0 -66 -37 -116q-40 -56 -104 -56q-63 0 -105 55q-38 51 -38 116q0 67 37 117q41 56 106 56q63 0 104 -56q37 -50 37 -116zM311 558q0 -66 -37 -117q-41 -56 -105 -56t-105 56q-37 50 -37 117q0 66 37 116q40 56 104 56q65 0 106 -55q37 -50 37 -117zM535 730
l-331 -744h-50l332 744h49zM661 158q0 -66 -37 -116q-40 -56 -104 -56q-63 0 -104 55q-38 51 -38 116q0 66 37 117q42 56 105 56q64 0 104 -56q37 -50 37 -116zM946 157q0 42 -22 77q-24 41 -64 41q-39 0 -64 -40q-21 -35 -21 -77q0 -41 22 -77q25 -41 63 -41q39 0 64 41
q22 35 22 76zM254 551q0 45 -21 81q-25 43 -66 43q-40 0 -64 -40q-21 -34 -21 -77t21 -77q24 -41 64 -41q38 0 63 38q23 34 23 73h1zM605 157q0 43 -21 77q-25 41 -65 41t-64 -40q-21 -35 -21 -77t21 -77q24 -41 63 -41t65 40q22 35 22 77z" />
    <glyph glyph-name="guilsinglleft" unicode="&#x2039;" horiz-adv-x="264" 
d="M198 120l-51 -1l-95 151l95 151h51l-94 -151z" />
    <glyph glyph-name="guilsinglright" unicode="&#x203a;" horiz-adv-x="264" 
d="M212 271l-95 -152h-51l94 150l-94 152h51z" />
    <glyph glyph-name="afii61352" unicode="&#x2116;" horiz-adv-x="905" 
d="M866 315q0 -67 -41 -120q-45 -57 -110 -57q-66 0 -110 55q-41 51 -41 118q0 65 41 117q44 56 107 56q65 0 111 -53q43 -50 43 -116zM852 0h-277v59h277v-59zM510 0h-78l-310 607v-27q1 -18 1 -27v-553h-69v720h81l310 -600q0 9 -2 27t-2 27v546h69v-720zM805 311
q0 47 -22 80q-25 38 -70 38q-42 0 -67 -39q-22 -34 -22 -79t22 -79q26 -38 69 -38q44 0 69 38q21 33 21 79z" />
    <glyph glyph-name="trademark" unicode="&#x2122;" 
d="M712 432h-43v253l-95 -253h-27l-99 252v-252h-44v288h70l87 -222l81 222h70v-288zM335 685h-93v-253h-48v253h-95v35h236v-35z" />
    <glyph glyph-name="periodcentered" unicode="&#xb7;" horiz-adv-x="233" 
d="M153 320h-73v76h73v-76z" />
    <glyph glyph-name="periodcentered" unicode="&#x2219;" horiz-adv-x="233" 
d="M153 320h-73v76h73v-76z" />
    </font>
</defs>
</svg>
